<svg width="191" height="60" viewBox="0 0 191 60" fill="none" xmlns="http://www.w3.org/2000/svg">
<g clip-path="url(#clip0_201_297)">
<path d="M75.7059 34.853C75.7059 28.7647 80.0294 23.0294 88.147 23.0294C96.7059 23.0294 100.588 29.2059 100.588 34.853C100.588 40.9412 96.2647 46.6765 88.147 46.6765C79.7647 46.6765 75.7059 40.5 75.7059 34.853ZM79.5 34.3236C79.5 39.9706 83.0294 44.0294 88.147 44.0294C92.3823 44.0294 96.9706 41.2941 96.9706 35.3824C96.9706 29.7353 93.4412 25.6765 88.3235 25.6765C84.0882 25.5883 79.5 28.3236 79.5 34.3236ZM102 45.2647L101.118 40.853C102.882 42.8824 105.529 44.0294 108.265 43.9412C112.324 43.9412 114.882 42.2647 114.882 39.353C114.882 36.5294 112.676 34.9412 109.324 34.9412C108.265 34.853 107.118 35.0294 106.147 35.4706V32.1177C106.941 32.2941 107.735 32.3824 108.529 32.3824C113.029 32.3824 113.824 30.2647 113.824 28.7647C113.824 26.6471 112.324 25.5 109.588 25.5C107.206 25.5 104.824 26.2059 102.794 27.4412L103.235 23.3824C106.941 23.2059 106.235 22.853 109.5 22.853C111.088 22.853 117.529 22.853 117.529 28.3236C117.529 31.9412 114.353 33 113.118 33.2647V33.353C116.029 33.2647 118.5 35.5588 118.588 38.4706V38.9118C118.588 44.4706 113.559 46.5 108.441 46.5C106.147 46.7647 103.941 46.2353 102 45.2647ZM181.324 42.2647L175.588 34.4118L180.618 27.6177C181.5 26.4706 181.941 25.7647 181.941 25.0589C181.853 24.353 181.412 23.7353 180.794 23.4706H187.059L179.118 33.7059L182.824 38.6471C185.824 42.6177 187.412 44.5589 190.235 46.2353L186.794 46.4118H186.529C184.147 46.4118 182.912 44.4706 181.324 42.2647ZM62.647 46.1471C63.7059 45.4412 64.2353 44.2059 64.147 42.8824V26.7353C64.2353 25.5 63.7059 24.2647 62.647 23.4706H75.3529C75.7059 23.4706 76.147 23.4706 76.5 23.3824V27.353C75.6176 26.2059 74.3823 26.0294 71.8235 26.0294C70.3235 26.0294 68.3823 26.1177 67.3235 26.1177V42.8824C67.147 44.2059 67.8529 45.4412 69 46.1471H62.647ZM170.118 46.1471C171.176 45.4412 171.706 44.2059 171.618 42.8824V26.6471C171.794 25.4118 171.176 24.0883 170.118 23.3824H176.382C175.324 24.0883 174.794 25.3236 174.882 26.6471V42.8824C174.706 44.1177 175.324 45.4412 176.382 46.1471H170.118ZM161.912 46.1471C162.794 45.8824 163.324 44.9118 163.059 44.0294C163.059 43.853 162.971 43.7647 162.882 43.6765L160.412 37.5883H151.676L149.647 42.7059C149.206 43.853 148.941 45.1765 150.441 46.2353H144.353C146.029 45.1765 146.647 43.6765 147.353 42.0883L153.794 25.6765C154.235 24.8824 153.882 23.9118 153.176 23.5589C153.176 23.5589 153.088 23.5589 153.088 23.4706H158.382L166.235 42.8824C166.676 44.2941 167.647 45.5294 168.971 46.2353L161.912 46.1471ZM152.559 35.3824H159.618L156.088 26.3824L152.559 35.3824ZM136.853 46.1471C137.912 45.4412 138.529 44.2059 138.353 42.8824V34.9412H125.824V42.8824C125.647 44.1177 126.265 45.4412 127.324 46.1471H121.059C122.118 45.4412 122.735 44.2059 122.559 42.8824V26.6471C122.735 25.4118 122.118 24.0883 121.059 23.3824H127.324C126.265 24.0883 125.647 25.3236 125.824 26.6471V32.3824H138.353V26.6471C138.529 25.4118 137.912 24.0883 136.853 23.3824H143.118C142.059 24.0883 141.441 25.3236 141.618 26.6471V42.8824C141.441 44.1177 142.059 45.4412 143.118 46.1471H136.853ZM155.912 18.1765V16.9412H151.676V12.4412H152.206V16.5H153.618V12.4412H154.147V16.5H155.559V12.4412H156.088V16.5H156.529V18.0883H155.912V18.1765ZM79.0588 18.1765V16.9412H76.2353V12.4412H76.7647V16.5H78.5294V12.4412H79.0588V16.5H79.5V18.0883H79.0588V18.1765ZM183.794 16.5C183.441 15.9706 183.265 15.353 183.265 14.7353C183.265 14.1177 183.441 13.5 183.794 12.9706C184.412 12.2647 185.471 12.1765 186.176 12.7941C186.265 12.8824 186.353 12.8824 186.353 12.9706C186.706 13.5 186.882 14.1177 186.882 14.7353C186.882 15.353 186.706 15.9706 186.353 16.5C185.735 17.2059 184.676 17.2941 183.971 16.6765C183.882 16.5883 183.882 16.5 183.794 16.5ZM184.147 13.3236C183.971 13.7647 183.882 14.2059 183.882 14.7353C183.882 15.1765 183.971 15.7059 184.147 16.1471C184.5 16.6765 185.118 16.853 185.647 16.5C185.824 16.4118 185.912 16.2353 186 16.1471C186.176 15.7059 186.265 15.2647 186.265 14.7353C186.265 14.2941 186.176 13.7647 186 13.3236C185.647 12.7941 185.029 12.6177 184.5 12.9706L184.147 13.3236ZM165.882 16.5C165.529 15.9706 165.353 15.4412 165.353 14.8236C165.353 14.2059 165.529 13.5883 165.971 13.0589C166.324 12.7059 166.765 12.4412 167.294 12.4412C167.735 12.4412 168.088 12.5294 168.441 12.7941L168.176 13.1471C167.912 12.9706 167.647 12.8824 167.294 12.8824C166.765 12.8824 166.324 13.2353 166.147 13.6765C165.971 14.0294 165.971 14.4706 165.971 14.9118C165.971 15.2647 165.971 15.5294 166.147 15.8824C166.324 16.4118 166.853 16.7647 167.382 16.7647C167.735 16.7647 168 16.6765 168.265 16.5L168.529 16.853C168.176 17.1177 167.735 17.2059 167.294 17.2059C166.676 17.0294 166.147 16.853 165.882 16.5ZM138.706 16.5C138.353 15.9706 138.176 15.353 138.176 14.7353C138.176 14.1177 138.353 13.5 138.706 12.9706C139.324 12.2647 140.382 12.1765 141.088 12.7941C141.176 12.8824 141.265 12.8824 141.265 12.9706C141.618 13.5 141.794 14.1177 141.794 14.7353C141.794 15.353 141.618 15.9706 141.265 16.5C140.647 17.2059 139.588 17.2941 138.882 16.6765C138.794 16.5883 138.794 16.5 138.706 16.5ZM139.059 13.3236C138.882 13.7647 138.794 14.2059 138.794 14.7353C138.794 15.1765 138.882 15.7059 139.059 16.1471C139.412 16.6765 140.029 16.853 140.559 16.5C140.735 16.4118 140.824 16.2353 140.912 16.1471C141.088 15.7059 141.176 15.2647 141.176 14.7353C141.176 14.2941 141.088 13.7647 140.912 13.3236C140.647 12.7941 139.941 12.6177 139.412 12.9706L139.059 13.3236ZM122.029 16.5C121.676 15.9706 121.5 15.353 121.5 14.7353C121.5 14.1177 121.676 13.5 122.029 12.9706C122.647 12.2647 123.706 12.1765 124.412 12.7941C124.5 12.8824 124.588 12.8824 124.588 12.9706C124.941 13.5 125.118 14.1177 125.118 14.7353C125.118 15.353 124.941 15.9706 124.588 16.5C123.971 17.2059 122.912 17.2941 122.206 16.6765C122.206 16.5883 122.118 16.5 122.029 16.5ZM122.382 13.3236C122.206 13.7647 122.118 14.2059 122.118 14.7353C122.118 15.1765 122.206 15.7059 122.382 16.1471C122.735 16.6765 123.353 16.853 123.882 16.5C124.059 16.4118 124.147 16.2353 124.235 16.1471C124.412 15.7059 124.5 15.2647 124.5 14.7353C124.5 14.2941 124.412 13.7647 124.235 13.3236C123.882 12.7941 123.265 12.6177 122.735 12.9706L122.382 13.3236ZM90 16.5C89.647 15.9706 89.4706 15.353 89.4706 14.7353C89.4706 14.1177 89.647 13.5 90 12.9706C90.6176 12.2647 91.6764 12.1765 92.3823 12.7941C92.4706 12.8824 92.5588 12.8824 92.5588 12.9706C92.9117 13.5 93.0882 14.1177 93.0882 14.7353C93.0882 15.353 92.9117 15.9706 92.5588 16.5C91.9412 17.2059 90.8823 17.2941 90.1764 16.6765C90.1764 16.5883 90.0882 16.5 90 16.5ZM90.3529 13.3236C90.1764 13.7647 90.0882 14.2059 90.0882 14.7353C90.0882 15.1765 90.1764 15.7059 90.3529 16.1471C90.7059 16.6765 91.3235 16.853 91.8529 16.5C92.0294 16.4118 92.1176 16.2353 92.2059 16.1471C92.3823 15.7059 92.4706 15.2647 92.4706 14.7353C92.4706 14.2941 92.3823 13.7647 92.2059 13.3236C91.8529 12.7941 91.2353 12.6177 90.7059 12.9706L90.3529 13.3236ZM72.5294 17.0294C72.3529 17.0294 72.0882 16.9412 72 16.7647C71.9117 16.5883 71.8235 16.4118 71.8235 16.2353L71.647 15.5294C71.647 15.353 71.5588 15.1765 71.4706 15.0883C71.3823 15 71.2059 14.9118 71.0294 14.9118H70.5V17.1177H69.9706V12.6177H70.5V14.4706H71.1176C71.2941 14.4706 71.4706 14.4706 71.5588 14.2941C71.647 14.2059 71.7353 14.0294 71.7353 13.853L71.8235 13.2353C71.8235 13.0588 71.9117 12.8824 72 12.7941C72.1764 12.7059 72.2647 12.6177 72.5294 12.6177H72.7941L72.8823 12.9706L72.7059 13.0589C72.6176 13.0589 72.5294 13.1471 72.5294 13.1471C72.4411 13.0588 72.3529 13.1471 72.3529 13.2353L72.1764 13.853C72.1764 14.0294 72.0882 14.2059 72 14.2941L71.7353 14.5589C71.8235 14.5589 71.9117 14.6471 72 14.7353C72.0882 14.9118 72.1764 15 72.2647 15.1765L72.5294 16.0589C72.5294 16.2353 72.6176 16.3236 72.7059 16.4118C72.7941 16.4118 72.8823 16.5 72.9706 16.5H73.0588L72.9706 16.853L72.5294 17.0294ZM177.088 16.9412V12.4412H178.147C178.588 12.4412 179.029 12.5294 179.382 12.7059C179.647 12.8824 179.824 13.2353 179.824 13.5883C179.824 13.853 179.735 14.1177 179.559 14.2941C179.382 14.3824 179.206 14.5589 179.029 14.5589C179.206 14.5589 179.471 14.6471 179.647 14.8236C179.912 15.0883 180.088 15.353 180.088 15.7059C180.088 16.0588 180 16.3236 179.735 16.5883C179.294 16.853 178.853 17.0294 178.324 16.9412H177.088ZM177.618 16.5H178.588C178.853 16.5 179.029 16.4118 179.294 16.3236C179.471 16.1471 179.559 15.9706 179.559 15.7059C179.559 15.4412 179.471 15.1765 179.294 15C179.029 14.8236 178.765 14.8236 178.5 14.8236H177.706L177.618 16.5ZM177.618 14.3824H178.412C178.676 14.3824 178.853 14.3824 179.029 14.2059C179.382 13.853 179.294 13.4118 179.029 13.0589C178.853 12.8824 178.588 12.8824 178.324 12.8824H177.706L177.618 14.3824ZM172.235 16.9412V12.8824H171V12.4412H174V12.8824H172.765V16.9412H172.235ZM159.794 16.9412V12.4412H162.265L162.176 12.8824H160.324V14.3824H161.912V14.8236H160.324V16.5H162.353V16.9412H159.794ZM145.324 16.9412V12.4412H147.882L147.794 12.8824H145.853V14.2941H146.559C147 14.2941 147.353 14.3824 147.706 14.5589C148.059 14.8236 148.235 15.2647 148.235 15.6177C148.235 15.9706 148.147 16.3236 147.882 16.5C147.441 16.853 147 16.9412 146.471 16.853L145.324 16.9412ZM145.853 16.5H146.824C147.088 16.5 147.265 16.4118 147.529 16.3236C147.706 16.1471 147.794 15.8824 147.794 15.7059C147.794 15.4412 147.706 15.1765 147.529 15C147.265 14.8236 147 14.8236 146.735 14.8236H145.941V16.5H145.853ZM128.647 16.9412V12.4412H131.118L131.029 12.8824H129.176V14.3824H130.765V14.8236H129.265V16.5H131.294V16.9412H128.647ZM117.529 16.9412V14.7353H115.676V16.9412H115.147V12.4412H115.676V14.2941H117.529V12.4412H118.059V16.9412H117.529ZM109.059 16.9412V12.4412H110.294C110.647 12.4412 111 12.4412 111.265 12.6177C111.618 12.8824 111.882 13.2353 111.882 13.6765C111.882 14.1177 111.794 14.4706 111.441 14.7353C111.176 15 110.735 15.0883 110.382 15.0883H109.588V16.853L109.059 16.9412ZM109.588 14.7353H110.382C110.647 14.7353 110.912 14.6471 111.088 14.4706C111.265 14.2941 111.353 14.0294 111.353 13.853C111.353 13.5883 111.265 13.3236 111.088 13.1471C110.824 12.9706 110.559 12.8824 110.206 12.8824H109.676L109.588 14.7353ZM103.235 16.9412V12.4412H105.706L105.618 12.8824H103.765V14.3824H105.353V14.8236H103.765V16.5H105.794V16.9412H103.235ZM99 16.9412V14.7353H97.147V16.9412H96.6176V12.4412H97.147V14.2941H99V12.4412H99.5294V16.9412H99ZM85.5 16.9412V13.853V12.9706C85.5 13.1471 85.4117 13.3236 85.3235 13.4118L83.4706 16.9412H82.9412V12.4412H83.4706V15.6177C83.4706 15.7059 83.4706 16.0588 83.3823 16.3236C83.4706 16.1471 83.5588 15.8824 83.647 15.7059L85.4117 12.4412H86.0294V16.9412H85.5ZM66.1764 16.9412L65.7353 15.5294H64.0588L63.6176 16.9412H63.0882L64.5882 12.4412H65.2941L66.7941 16.9412H66.1764ZM64.2353 15.1765H65.647L64.9411 12.9706L64.2353 15.1765Z" fill="#006050"/>
<path d="M50.4706 40.5882C50.3824 42.3529 49.9412 45.2647 48.2647 47.7353C47.2059 49.3235 45.7942 50.5588 44.0295 51.5294C42.6177 52.3235 41.2059 52.8529 39.6177 53.3824C37.9412 53.9118 36.1765 54.3529 34.5 54.7941C33.0883 55.1471 31.5883 55.5882 30.1765 56.1176C29.1177 56.5588 28.1471 57 27.1765 57.7059C26.3824 58.3235 25.6765 59.0294 25.1471 59.9118H25.0589C25.0589 59.8235 24.9706 59.7353 24.9706 59.7353C24.353 58.6765 23.3824 57.8824 22.3236 57.2647C21.1765 56.5588 20.0295 56.1176 18.7942 55.6765C17.2059 55.1471 15.6177 54.7941 14.0295 54.3529C12.353 53.9118 10.6765 53.4706 9.08827 52.8529C7.58828 52.2353 6.17651 51.5294 4.85298 50.6471C2.9118 49.2353 1.58827 47.3824 0.794157 45.1765C0.441216 44.1176 0.0882748 42.9706 3.94955e-05 41.8235C3.94955e-05 41.2941 -0.0881958 41.0294 -0.0881958 40.1471C3.94955e-05 26.1176 3.94955e-05 0 3.94955e-05 0H50.4706V40.5882ZM25.3236 57.2647C25.4118 57.1765 25.5 57.1765 25.5 57.0882C25.853 56.6471 26.2942 56.2059 26.7353 55.8529C27.7059 55.0588 28.853 54.4412 30.0883 54C31.5883 53.3824 33.0883 52.9412 34.6765 52.5882C36.2647 52.1471 37.9412 51.7941 39.5294 51.2647C41.0294 50.7353 42.5294 50.2059 43.9412 49.4118C46.0589 48.1765 47.6471 46.5882 48.7059 44.5588C49.5 42.8824 49.9412 41.0294 50.0294 39.1765C50.1177 38.1176 50.1177 37.0588 50.1177 36V0.529412H0.529451V36.9706C0.529451 37.9412 0.617687 38.9118 0.705922 39.8824C0.794157 40.9412 1.05886 42 1.4118 43.0588C2.11769 45.3529 3.52945 47.2059 5.47063 48.7059C6.70592 49.5882 8.02945 50.2059 9.44122 50.7353C10.9412 51.3529 12.4412 51.7059 14.0295 52.1471C15.5295 52.5882 17.0295 52.9412 18.6177 53.3824C19.9412 53.7353 21.1765 54.1765 22.3236 54.8824C23.4706 55.4118 24.4412 56.2059 25.3236 57.2647Z" fill="#006050"/>
<path d="M43.9412 32.9116C43.1471 38.1175 40.5 41.7352 40.5 41.7352H41.5588C41.5588 41.7352 37.7647 46.0587 35.2941 45.794C34.9412 45.794 40.5 41.2058 42.2647 31.7646C43.0588 27.3528 42.0882 22.5881 42.0882 22.5881C43.1471 23.3822 44.6471 28.1469 43.9412 32.9116ZM38.3824 20.0293C38.3824 20.0293 38.8235 23.1175 38.6471 26.9116C38.3824 33.8822 36.5294 37.9411 33.4412 41.5587C32.6471 42.5293 25.7647 48.7058 25.7647 48.7058C31.5882 48.794 36.9706 42.5293 36.9706 42.5293H35.5588C35.5588 42.4411 39 38.9999 40.3235 32.294C41.3824 26.6469 39.3529 21.5293 39.3529 21.5293L38.3824 20.0293ZM31.5 42.5293H29.1177C29.1177 42.5293 36.2647 37.5881 36.2647 27.0881C36.2647 21.4411 35.3824 17.2058 35.3824 17.2058L33.5294 14.1175V16.2352C33.5294 18.3528 32.6471 21.1764 31.3235 22.4999C29.9118 23.8234 28.0588 24.7058 25.9412 24.7058C29.0294 25.7646 32.3824 24.1764 34.0588 21.4411C34.5 25.0587 34.7647 29.2058 33.4412 32.7352C32.3824 35.5587 30.7059 37.9411 28.9412 39.8822V37.0587L27 35.7352C27 35.7352 27 38.5587 26.9118 38.4705C26.9118 38.4705 25.9412 37.9411 25.5882 37.4999C24.6177 36.6175 23.8235 35.294 23.8235 35.294C23.8235 35.294 23.9118 38.4705 23.7353 38.3822C21.7059 37.1469 21.3529 35.0293 21.3529 35.0293V37.2352C21.3529 37.2352 20.5588 36.794 19.9412 36.1764C19.3235 35.5587 18.8824 34.4999 18.8824 34.4999L13.7647 35.4705L13.1471 37.4999L14.1177 36.6175L17.8235 35.9116C17.8235 35.9116 18.2647 36.6175 18.9706 37.4116C19.6765 38.2058 20.9118 38.9999 20.9118 38.9999V38.3822C22.2353 39.8822 22.5 40.2352 23.1177 40.5881C24.4412 41.4705 25.4118 41.9116 25.4118 41.9116C25.4118 41.9116 25.4118 39.3528 25.5 39.3528C25.5 39.3528 26.2059 40.4999 27.4412 41.2058C24.8824 43.5881 22.5 44.9999 21.9706 45.3528C21.8824 45.4411 18.6177 47.3822 18.7941 47.3822C24.7941 49.2352 31.5 42.5293 31.5 42.5293ZM43.6765 39.0881C44.6471 35.3822 47.2059 30.2646 44.2059 21.7058C45.4412 23.1175 46.2353 25.3234 46.5882 27.3528C46.5882 26.7352 46.5882 26.1175 46.5 25.4999C45.7059 17.7352 41.3824 11.9116 36.8824 8.99988C34.0588 7.14694 31.7647 6.61753 31.2353 7.58812C30.7059 8.38224 31.3235 11.0293 31.4118 11.8234C31.5 13.4999 31.8529 16.8528 30.2647 18.1764C28.2353 19.8528 22.5882 15.3528 22.5882 15.3528C22.5882 15.3528 23.3824 15.6175 24.2647 14.0293C24.3529 13.9411 24.3529 13.7646 24.4412 13.6764C24.9706 11.9116 25.0588 10.2352 24 6.794C24.3529 6.61753 25.0588 6.35282 25.5882 6.17635C22.3235 6.26459 19.4118 6.17635 19.3235 6.17635C19.3235 7.76459 17.5588 7.58812 17.5588 6.794C15.8824 6.794 14.9118 6.61753 15.0882 8.99988C15.0882 8.99988 16.2353 8.82341 16.5882 8.73518C19.5 8.55871 19.9412 11.2058 19.7647 13.0587C19.5 14.8234 18.6177 14.4705 17.6471 17.5587C16.7647 21.4411 18.3529 23.4705 20.2941 26.4705C18.6177 25.5881 18.4412 25.4999 17.2941 24.2646C17.9118 27.1764 19.7647 30.5293 20.2059 31.3234C23.2059 30.5293 23.9118 29.7352 23.9118 29.4705V31.4999C23.4706 32.2058 21.4412 32.5587 18.0882 33.2646C13.4118 34.0587 13.5 34.1469 12.7941 33.7058C12.2647 33.3528 12.0882 32.7352 11.9118 32.4705C11.8235 32.4705 9.52942 32.7352 9.00001 32.8234C8.7353 32.9116 8.38236 33.2646 8.4706 33.794C8.55883 34.4116 8.91177 34.5881 9.61765 34.5881V34.7646C9.61765 34.7646 8.7353 34.8528 8.82354 35.7352C8.91177 36.6175 9.88236 36.6175 9.88236 36.6175V36.7058C9.88236 36.7058 9.08824 36.9705 9.26471 37.8528C9.44118 38.7352 10.3235 38.5587 10.5882 38.5587L12.7059 38.294L13.3235 43.2352L11.2059 43.4999L10.7647 39.2646C10.5882 39.2646 10.2353 39.3528 9.9706 39.3528C9.61765 39.3528 8.38236 39.3528 8.11765 38.2058C7.94118 37.3234 8.4706 36.9705 8.4706 36.9705C8.38236 36.8822 7.67648 36.794 7.58824 36.0881C7.41177 35.294 8.02942 34.9411 8.11765 34.8528C8.11765 34.8528 7.50001 34.6764 7.41177 33.8822C7.2353 33.0881 7.67648 32.6469 7.85295 32.5587C8.02942 32.3822 8.20589 32.294 8.4706 32.2058H8.55883L4.58824 32.6469C4.58824 32.6469 6.08824 28.8528 10.4118 28.5881C14.9118 28.2352 16.8529 31.4116 16.8529 31.4116L13.0588 31.7646C13.1471 32.0293 13.4118 32.3822 13.6765 32.5587C14.3824 32.9116 17.1177 32.2058 18.1765 32.0293H18.2647C17.8235 31.0587 15.9706 26.9999 15.3529 23.2058C13.9412 23.294 11.3824 23.294 11.1177 22.9411C10.5882 22.0587 10.8529 21.9705 10.5882 21.0881C10.3235 20.2058 8.91177 19.8528 8.29412 20.6469C7.50001 21.6175 7.76471 22.9411 9.52942 23.2058C9.44118 23.2058 9.52942 23.2058 9.52942 22.8528H10.0588C10.0588 23.4705 10.1471 23.8234 10.5 24.0881C9.08824 24.2646 8.11765 23.7352 7.67648 23.0293C7.32354 23.1175 7.05883 23.0293 6.70589 23.0293C6.52942 23.2058 6.35295 23.4705 6.44118 23.8234C6.52942 24.5293 7.05883 24.7058 7.41177 24.7058C8.02942 24.7058 8.38236 23.9116 8.38236 23.9116V25.3234H15.5294C15.5294 25.3234 14.2941 27.3528 12.1765 28.1469C11.3824 28.4999 10.3235 28.6764 9.17648 28.6764C7.14707 28.5881 5.7353 27.8822 4.94118 27.0881C4.14707 26.294 3.52942 25.4116 3.52942 25.4116H6.70589C6.35295 25.2352 5.91177 24.9705 5.64707 24.4411C5.29412 23.6469 5.55883 23.1175 5.91177 22.8528C5.7353 22.7646 5.55883 22.6764 5.4706 22.4999C5.29412 22.3234 5.11765 22.0587 5.02942 21.794C4.85295 21.2646 4.85295 20.7352 5.02942 20.294C5.20589 19.7646 5.82354 19.1469 6.52942 19.0587C7.2353 18.9705 7.76471 19.1469 8.29412 19.4116V14.9116H10.4118L10.5 19.1469C10.9412 19.1469 11.3824 19.3234 11.6471 19.8528C11.9118 20.3822 11.9118 21.1764 11.9118 21.1764C11.9118 21.1764 11.8235 21.8822 12.6177 22.0587H15.0882C15 21.1764 15 20.3822 15.0882 19.5881C15.3529 17.9999 15.8824 16.8528 16.3235 16.0587C16.5 15.8822 16.5882 15.6175 16.7647 15.5293L17.6471 14.4705C18.4412 13.4999 18.7941 12.794 18.7059 11.5587C18.5294 9.70577 14.8235 9.52929 14.3824 10.6764C14.0294 10.1469 14.0294 9.52929 14.0294 8.91165C14.0294 8.294 14.2941 7.94106 14.3824 7.58812C14.4706 6.26459 15.8824 6.17635 16.9412 6.08812C16.9412 3.44106 24.1765 4.49988 26.7353 6.35282C26.4706 6.44106 25.4118 7.05871 25.4118 7.05871C26.1177 8.47047 26.7353 13.5881 26.8235 16.4999C29.1177 17.6469 28.9412 14.5587 28.5 10.5881C28.3235 8.64694 28.8529 7.41165 29.6471 6.52929C30.4412 5.64694 31.5882 5.64694 32.4706 5.73518C36.2647 5.99988 47.2059 12.1764 47.6471 25.4116C47.9118 30.9705 45.2647 38.294 43.6765 39.0881ZM7.50001 19.7646C7.14707 19.4999 5.4706 19.5881 5.4706 20.7352C5.4706 21.4411 5.7353 21.7058 6.08824 21.8822C6.26471 21.9705 6.52942 22.0587 6.70589 22.0587C6.61765 21.2646 6.88236 20.3822 7.50001 19.7646Z" fill="#006050"/>
</g>
<defs>
<clipPath id="clip0_201_297">
<rect width="190.235" height="60" fill="white"/>
</clipPath>
</defs>
</svg>
