<?xml version="1.0" encoding="utf-8"?><svg viewBox="0 0 331 327" xmlns="http://www.w3.org/2000/svg" xmlns:xlink="http://www.w3.org/1999/xlink"><style>:root>svg{display:none}:root>svg:target{display:block}</style><svg viewBox="0 0 331 327" id="hero-logo" xmlns="http://www.w3.org/2000/svg"><path opacity=".25" d="M303.069 210.169c-5.955 38.507-25.807 65.265-25.807 65.265h7.941s-28.454 31.98-46.983 30.022c-2.646 0 39.042-33.938 52.277-103.771 5.955-32.632-1.324-67.875-1.324-67.875 7.941 5.874 19.19 41.116 13.896 76.359zm-41.688-95.286s3.308 22.843 1.985 50.906c-1.985 51.56-15.881 81.581-39.042 108.34-5.955 7.179-57.57 52.864-57.57 52.864 43.674.653 84.039-45.685 84.039-45.685h-10.587c0-.653 25.807-26.106 35.733-75.707 7.94-41.77-7.279-79.623-7.279-79.623l-7.279-11.095zm-51.615 166.425H191.9s53.599-36.548 53.599-114.213c0-41.77-6.617-73.097-6.617-73.097l-13.896-22.842v15.663c0 15.664-6.617 36.548-16.543 46.338-10.588 9.79-24.484 16.316-40.365 16.316 23.16 7.832 48.306-3.916 60.878-24.148 3.309 26.759 5.294 57.433-4.632 83.539-7.94 20.885-20.513 38.506-33.748 52.865v-20.885l-14.558-9.79s0 20.885-.661 20.232c0 0-7.279-3.916-9.926-7.179-7.279-6.526-13.235-16.316-13.235-16.316s.662 23.495-.661 22.843c-15.22-9.138-17.867-24.801-17.867-24.801v16.316s-5.955-3.263-10.587-7.832c-4.633-4.568-7.941-12.4-7.941-12.4l-38.38 7.179-4.632 15.011 7.279-6.526 27.792-5.222s3.309 5.222 8.603 11.095c5.293 5.874 14.558 11.748 14.558 11.748v-4.568c9.925 11.095 11.911 13.705 16.543 16.316 9.925 6.526 17.204 9.789 17.204 9.789s0-18.926.662-18.926c0 0 5.294 8.484 14.558 13.705-19.19 17.622-37.056 28.064-41.027 30.675-.662.652-25.145 15.01-23.822 15.01 44.997 13.706 95.288-35.895 95.288-35.895zm91.318-25.453c7.279-27.411 26.469-65.265 3.97-128.572 9.265 10.443 15.22 26.759 17.867 41.77 0-4.569 0-9.137-.662-13.706-5.955-57.433-38.38-100.508-72.128-122.045-21.175-13.705-38.38-17.621-42.35-10.442-3.97 5.874.662 25.453 1.324 31.327.661 12.4 3.308 37.2-8.603 46.99-15.219 12.401-57.57-20.884-57.57-20.884s5.956 1.958 12.573-9.79c.662-.653.662-1.958 1.323-2.61 3.971-13.053 4.633-25.454-3.308-50.907 2.647-1.305 7.941-3.263 11.911-4.569-24.484.653-46.321 0-46.983 0 0 11.748-13.234 10.443-13.234 4.569-12.573 0-19.852-1.305-18.528 16.316 0 0 8.602-1.305 11.25-1.958 21.836-1.305 25.145 18.274 23.821 31.98-1.985 13.053-8.602 10.442-15.881 33.285-6.618 28.716 5.294 43.727 19.851 65.917-12.572-6.526-13.896-7.179-22.498-16.316 4.632 21.537 18.528 46.338 21.837 52.212 22.498-5.874 27.792-11.748 27.792-13.706v15.011c-3.309 5.221-18.528 7.832-43.674 13.053-35.071 5.874-34.41 6.526-39.703 3.263-3.97-2.61-5.294-7.179-6.617-9.137-.662 0-17.867 1.958-21.837 2.611-1.985.652-4.632 3.263-3.97 7.179.661 4.568 3.308 5.874 8.602 5.874v1.305s-6.617.653-5.956 7.179c.662 6.527 7.941 6.527 7.941 6.527v.652s-5.955 1.958-4.632 8.485c1.324 6.526 7.94 5.221 9.926 5.221l15.881-1.958 4.632 36.548-15.881 1.958-3.309-31.327c-1.323 0-3.97.653-5.955.653-2.647 0-11.911 0-13.896-8.485-1.324-6.526 2.647-9.137 2.647-9.137-.662-.652-5.956-1.305-6.618-6.526-1.323-5.874 3.309-8.485 3.97-9.137 0 0-4.631-1.306-5.293-7.179-1.324-5.874 1.985-9.138 3.308-9.79 1.324-1.305 2.647-1.958 4.633-2.611h.661l-29.777 3.263s11.249-28.063 43.673-30.021c33.748-2.611 48.306 20.884 48.306 20.884l-28.454 2.611c.662 1.958 2.647 4.569 4.632 5.874 5.294 2.61 25.807-2.611 33.748-3.916h.662c-3.309-7.179-17.205-37.201-21.837-65.265-10.588.653-29.778.653-31.763-1.958-3.97-6.526-1.985-7.179-3.97-13.705-1.985-6.527-12.573-9.137-17.205-3.263-5.955 7.179-3.97 16.968 9.264 18.926-.661 0 0 0 0-2.61h3.97c0 4.568.662 7.179 3.31 9.137-10.588 1.305-17.867-2.611-21.176-7.832-2.647.653-4.632 0-7.279 0-1.323 1.305-2.647 3.263-1.985 5.874.662 5.221 4.632 6.526 7.279 6.526 4.632 0 7.279-5.874 7.279-5.874v10.443h53.6s-9.265 15.011-25.146 20.884c-5.956 2.611-13.896 3.916-22.499 3.916-15.22-.652-25.807-5.873-31.762-11.747C4.632 161.221 0 154.694 0 154.694h23.822c-2.647-1.305-5.956-3.263-7.94-7.179-2.647-5.873-.662-9.789 1.984-11.747-1.323-.653-2.646-1.306-3.308-2.611-1.323-1.305-2.647-3.263-3.309-5.221-1.323-3.916-1.323-7.832 0-11.095 1.324-3.916 5.956-8.484 11.25-9.137 5.293-.653 9.264.653 13.234 2.61V77.03h15.881l.662 31.327c3.309 0 6.617 1.305 8.603 5.221 1.985 3.916 1.985 9.789 1.985 9.789s-.662 5.222 5.294 6.527h18.528c-.662-6.527-.662-12.4 0-18.274 1.985-11.748 5.955-20.232 9.264-26.106 1.323-1.305 1.985-3.263 3.308-3.916l6.618-7.832c5.955-7.179 8.602-12.4 7.94-21.537-1.323-13.706-29.115-15.01-32.424-6.526-2.647-3.916-2.647-8.485-2.647-13.053 0-4.569 1.985-7.18 2.647-9.79.662-9.79 11.25-10.442 19.19-11.095 0-19.58 54.261-11.748 73.451 1.958-1.985.652-9.926 5.22-9.926 5.22 5.294 10.443 9.926 48.297 10.588 69.834 17.205 8.485 15.881-14.358 12.573-43.727-1.324-14.358 2.647-23.495 8.602-30.022 5.956-6.526 14.558-6.526 21.175-5.874 28.454 1.958 110.508 47.643 113.817 145.54 1.985 41.117-17.867 95.287-29.778 101.161zM29.778 112.925c-2.647-1.958-15.22-1.305-15.22 7.179 0 5.221 1.985 7.179 4.632 8.485 1.323.652 3.309 1.305 4.632 1.305-.662-5.874 1.323-12.4 5.956-16.969z"/></svg><svg viewBox="0 0 24 24" id="icon-login" xmlns="http://www.w3.org/2000/svg"><path d="M12.12 13.53h-.17c-2.27-.07-3.97-1.84-3.97-4.02 0-2.22 1.81-4.03 4.03-4.03s4.03 1.81 4.03 4.03a4.014 4.014 0 01-3.89 4.02h-.03zM12 6.97c-1.4 0-2.53 1.14-2.53 2.53a2.52 2.52 0 002.43 2.53.84.84 0 01.23 0 2.535 2.535 0 002.4-2.53c0-1.39-1.13-2.53-2.53-2.53zM12 22.75c-2.69 0-5.26-1-7.25-2.82a.755.755 0 01-.24-.63c.13-1.19.87-2.3 2.1-3.12 2.98-1.98 7.81-1.98 10.78 0 1.23.83 1.97 1.93 2.1 3.12.03.24-.06.47-.24.63A10.71 10.71 0 0112 22.75zM6.08 19.1A9.208 9.208 0 0012 21.25c2.17 0 4.26-.76 5.92-2.15-.18-.61-.66-1.2-1.37-1.68-2.46-1.64-6.63-1.64-9.11 0-.71.48-1.18 1.07-1.36 1.68z"/><path d="M12 22.75C6.07 22.75 1.25 17.93 1.25 12S6.07 1.25 12 1.25 22.75 6.07 22.75 12 17.93 22.75 12 22.75zm0-20C6.9 2.75 2.75 6.9 2.75 12S6.9 21.25 12 21.25s9.25-4.15 9.25-9.25S17.1 2.75 12 2.75z"/></svg><svg viewBox="0 0 26 24" id="icon-tlg" xmlns="http://www.w3.org/2000/svg"><path d="M.47 11.536l5.985 2.234 2.318 7.452a.704.704 0 001.118.337l3.337-2.72a.994.994 0 011.214-.034l6.018 4.37a.705.705 0 001.106-.427L25.975 1.54a.706.706 0 00-.945-.802L.462 10.216c-.606.234-.6 1.092.007 1.32zm7.93 1.045l11.698-7.205c.21-.13.427.155.246.322l-9.655 8.975a2 2 0 00-.62 1.198l-.329 2.437c-.044.326-.501.358-.59.043l-1.266-4.445a1.178 1.178 0 01.515-1.325z"/></svg><svg viewBox="0 0 26 16" id="icon-vk" xmlns="http://www.w3.org/2000/svg"><path d="M4.939 10.76c1.002 1.359 2.155 2.56 3.644 3.41 1.685.964 3.5 1.255 5.415 1.166.894-.043 1.163-.276 1.204-1.167.028-.61.099-1.22.4-1.768.295-.538.743-.64 1.26-.305.257.169.474.38.68.607.503.55.99 1.12 1.513 1.652.656.668 1.434 1.061 2.41.981l3.784.002c.61-.041.926-.788.576-1.47-.246-.475-.569-.899-.91-1.31-.773-.928-1.685-1.72-2.546-2.56-.776-.758-.826-1.198-.202-2.073.683-.955 1.414-1.873 2.102-2.823.642-.888 1.3-1.775 1.637-2.837.215-.677.024-.976-.668-1.096-.12-.02-.244-.02-.366-.02l-4.117-.005c-.507-.008-.786.214-.965.663a24.774 24.774 0 01-.782 1.8c-.653 1.33-1.383 2.614-2.407 3.701-.227.24-.478.543-.855.418-.471-.172-.611-.95-.603-1.212l-.004-4.752c-.091-.678-.242-.982-.917-1.114H9.946c-.57 0-.856.222-1.162.578-.174.208-.228.34.133.41.709.134 1.111.593 1.216 1.304.17 1.138.158 2.28.06 3.42a3.174 3.174 0 01-.217.978c-.207.49-.542.589-.98.287-.395-.273-.674-.657-.949-1.042-1.026-1.45-1.843-3.012-2.511-4.654-.192-.474-.525-.762-1.028-.77a104.18 104.18 0 00-3.706.002c-.742.013-.964.374-.66 1.049 1.344 2.992 2.842 5.9 4.797 8.55z"/></svg><svg fill="none" viewBox="0 0 191 60" id="logo-main" xmlns="http://www.w3.org/2000/svg"><g clip-path="url(#eclip0_201_297)" fill="#006050"><path d="M75.706 34.853c0-6.088 4.323-11.824 12.441-11.824 8.559 0 12.441 6.177 12.441 11.824 0 6.088-4.323 11.823-12.441 11.823-8.382 0-12.441-6.176-12.441-11.823zm3.794-.53c0 5.648 3.53 9.706 8.647 9.706 4.235 0 8.824-2.735 8.824-8.647 0-5.647-3.53-9.705-8.648-9.705-4.235-.089-8.823 2.647-8.823 8.647zM102 45.266l-.882-4.412c1.764 2.03 4.411 3.176 7.147 3.088 4.059 0 6.617-1.676 6.617-4.588 0-2.824-2.206-4.412-5.558-4.412-1.059-.088-2.206.088-3.177.53v-3.353c.794.176 1.588.264 2.382.264 4.5 0 5.295-2.117 5.295-3.617 0-2.118-1.5-3.265-4.236-3.265-2.382 0-4.764.706-6.794 1.941l.441-4.059c3.706-.176 3-.529 6.265-.529 1.588 0 8.029 0 8.029 5.47 0 3.618-3.176 4.677-4.411 4.942v.088c2.911-.088 5.382 2.206 5.47 5.118v.44c0 5.56-5.029 7.589-10.147 7.589-2.294.265-4.5-.265-6.441-1.235zm79.324-3l-5.736-7.853 5.03-6.794c.882-1.147 1.323-1.853 1.323-2.56-.088-.705-.529-1.323-1.147-1.587h6.265l-7.941 10.235 3.706 4.941c3 3.97 4.588 5.912 7.411 7.588l-3.441.177h-.265c-2.382 0-3.617-1.941-5.205-4.147zM62.647 46.147c1.059-.706 1.588-1.941 1.5-3.265V26.735a3.737 3.737 0 00-1.5-3.264h12.706c.353 0 .794 0 1.147-.089v3.971c-.882-1.147-2.118-1.324-4.677-1.324-1.5 0-3.44.089-4.5.089v16.764c-.176 1.324.53 2.56 1.677 3.265h-6.353zm107.471 0c1.058-.706 1.588-1.941 1.5-3.265V26.647c.176-1.235-.442-2.559-1.5-3.265h6.264c-1.058.706-1.588 1.942-1.5 3.265v16.235c-.176 1.236.442 2.56 1.5 3.265h-6.264zm-8.206 0c.882-.265 1.412-1.235 1.147-2.118 0-.176-.088-.264-.177-.353l-2.47-6.088h-8.736l-2.029 5.118c-.441 1.147-.706 2.47.794 3.53h-6.088c1.676-1.06 2.294-2.56 3-4.148l6.441-16.412c.441-.794.088-1.764-.618-2.117 0 0-.088 0-.088-.088h5.294l7.853 19.411c.441 1.412 1.412 2.647 2.736 3.353l-7.059-.088zm-9.353-10.765h7.059l-3.53-9-3.529 9zm-15.706 10.765c1.059-.706 1.676-1.941 1.5-3.265v-7.94h-12.529v7.94c-.177 1.236.441 2.56 1.5 3.265h-6.265c1.059-.706 1.676-1.941 1.5-3.265V26.647c.176-1.235-.441-2.559-1.5-3.265h6.265c-1.059.706-1.677 1.942-1.5 3.265v5.735h12.529v-5.735c.176-1.235-.441-2.559-1.5-3.265h6.265c-1.059.706-1.677 1.942-1.5 3.265v16.235c-.177 1.236.441 2.56 1.5 3.265h-6.265zm19.059-27.97V16.94h-4.236v-4.5h.53V16.5h1.412v-4.059h.529V16.5h1.412v-4.059h.529V16.5h.441v1.588h-.617v.088zm-76.853 0V16.94h-2.824v-4.5h.53V16.5h1.764v-4.059h.53V16.5h.441v1.588h-.441v.088zM183.794 16.5a3.18 3.18 0 01-.529-1.765c0-.617.176-1.235.529-1.764.618-.706 1.677-.794 2.382-.177.089.088.177.088.177.177a3.18 3.18 0 01.529 1.764 3.18 3.18 0 01-.529 1.765c-.618.706-1.677.794-2.382.177-.089-.089-.089-.177-.177-.177zm.353-3.176a3.666 3.666 0 00-.265 1.411c0 .442.089.97.265 1.412.353.53.971.706 1.5.353.177-.088.265-.265.353-.353.176-.441.265-.882.265-1.412 0-.44-.089-.97-.265-1.411-.353-.53-.971-.706-1.5-.353l-.353.353zM165.882 16.5c-.353-.53-.529-1.059-.529-1.676 0-.618.176-1.236.618-1.765.353-.353.794-.618 1.323-.618.441 0 .794.088 1.147.353l-.265.353a1.488 1.488 0 00-.882-.265c-.529 0-.97.353-1.147.795-.176.352-.176.794-.176 1.235 0 .353 0 .617.176.97.177.53.706.883 1.235.883.353 0 .618-.088.883-.265l.264.353c-.353.265-.794.353-1.235.353-.618-.177-1.147-.353-1.412-.706zm-27.176 0a3.181 3.181 0 01-.53-1.765c0-.617.177-1.235.53-1.764a1.682 1.682 0 012.382-.177c.088.088.177.088.177.177a3.18 3.18 0 01.529 1.764 3.18 3.18 0 01-.529 1.765 1.684 1.684 0 01-2.383.177c-.088-.089-.088-.177-.176-.177zm.353-3.176a3.648 3.648 0 00-.265 1.411c0 .442.088.97.265 1.412.353.53.97.706 1.5.353.176-.088.265-.265.353-.353.176-.441.264-.882.264-1.412 0-.44-.088-.97-.264-1.411-.265-.53-.971-.706-1.5-.353l-.353.353zm-17.03 3.176a3.18 3.18 0 01-.529-1.765c0-.617.176-1.235.529-1.764a1.684 1.684 0 012.383-.177c.088.088.176.088.176.177.353.529.53 1.147.53 1.764 0 .618-.177 1.236-.53 1.765a1.682 1.682 0 01-2.382.177.19.19 0 00-.177-.177zm.353-3.176a3.666 3.666 0 00-.264 1.411c0 .442.088.97.264 1.412.353.53.971.706 1.5.353.177-.088.265-.265.353-.353.177-.441.265-.882.265-1.412 0-.44-.088-.97-.265-1.411-.353-.53-.97-.706-1.5-.353l-.353.353zM90 16.5a3.18 3.18 0 01-.53-1.765c0-.617.177-1.235.53-1.764a1.683 1.683 0 012.382-.177c.089.088.177.088.177.177.353.529.53 1.147.53 1.764 0 .618-.177 1.236-.53 1.765a1.683 1.683 0 01-2.383.177A.19.19 0 0090 16.5zm.353-3.176a3.657 3.657 0 00-.265 1.411c0 .442.088.97.265 1.412.353.53.97.706 1.5.353.176-.088.265-.265.353-.353a3.66 3.66 0 00.265-1.412c0-.44-.089-.97-.265-1.411-.353-.53-.97-.706-1.5-.353l-.353.353zm-17.824 3.705c-.176 0-.44-.088-.529-.264-.088-.177-.177-.353-.177-.53l-.176-.706a.674.674 0 00-.176-.44.674.674 0 00-.442-.177H70.5v2.206h-.53v-4.5h.53v1.853h.618c.176 0 .353 0 .44-.177a.674.674 0 00.177-.441l.088-.618c0-.176.089-.353.177-.44.176-.09.265-.177.53-.177h.264l.088.353-.176.088c-.088 0-.177.088-.177.088-.088-.088-.176 0-.176.088l-.177.618a.674.674 0 01-.176.441l-.265.265c.088 0 .177.088.265.176.088.177.176.265.265.442l.264.882c0 .176.089.265.177.353.088 0 .176.088.265.088h.088l-.088.353-.442.176zm104.559-.088v-4.5h1.059c.441 0 .882.088 1.235.265.265.176.442.53.442.882 0 .265-.089.53-.265.706-.177.088-.353.265-.53.265.177 0 .442.088.618.265.265.264.441.529.441.882s-.088.618-.353.882c-.441.265-.882.441-1.411.353h-1.236zm.53-.441h.97c.265 0 .441-.088.706-.176a.8.8 0 00.265-.618c0-.265-.088-.53-.265-.706-.265-.176-.529-.176-.794-.176h-.794l-.088 1.676zm0-2.118h.794c.264 0 .441 0 .617-.176.353-.353.265-.794 0-1.147-.176-.177-.441-.177-.705-.177h-.618l-.088 1.5zm-5.383 2.56v-4.06H171v-.44h3v.44h-1.235v4.06h-.53zm-12.441 0v-4.5h2.471l-.089.44h-1.852v1.5h1.588v.442h-1.588V16.5h2.029v.441h-2.559zm-14.47 0v-4.5h2.558l-.088.44h-1.941v1.412h.706c.441 0 .794.088 1.147.265.353.265.529.706.529 1.059s-.088.706-.353.882c-.441.353-.882.441-1.411.353l-1.147.088zm.529-.442h.971c.264 0 .441-.088.705-.176a.951.951 0 00.265-.618c0-.265-.088-.53-.265-.706-.264-.176-.529-.176-.794-.176h-.794V16.5h-.088zm-17.206.441v-4.5h2.471l-.089.441h-1.853v1.5h1.589v.442h-1.5V16.5h2.029v.441h-2.647zm-11.118 0v-2.206h-1.853v2.206h-.529v-4.5h.529v1.853h1.853v-1.853h.53v4.5h-.53zm-8.47 0v-4.5h1.235c.353 0 .706 0 .971.177.353.264.617.617.617 1.059 0 .44-.088.794-.441 1.058-.265.265-.706.353-1.059.353h-.794v1.765l-.529.088zm.529-2.206h.794c.265 0 .53-.088.706-.264a.951.951 0 00.265-.618c0-.265-.088-.53-.265-.706a1.488 1.488 0 00-.882-.265h-.53l-.088 1.853zm-6.353 2.206v-4.5h2.471l-.088.441h-1.853v1.5h1.588v.442h-1.588V16.5h2.029v.441h-2.559zm-4.235 0v-2.206h-1.853v2.206h-.53v-4.5h.53v1.853H99v-1.853h.53v4.5H99zm-13.5 0v-3.97a.674.674 0 01-.177.44l-1.852 3.53h-.53v-4.5h.53v3.177c0 .088 0 .44-.089.706.089-.177.177-.442.265-.618l1.765-3.265h.617v4.5H85.5zm-19.324 0l-.44-1.412h-1.677l-.441 1.412h-.53l1.5-4.5h.706l1.5 4.5h-.618zm-1.94-1.764h1.411l-.706-2.206-.706 2.206zM50.47 40.588c-.088 1.765-.529 4.677-2.205 7.147-1.06 1.589-2.47 2.824-4.236 3.794-1.411.794-2.823 1.324-4.411 1.853-1.677.53-3.442.97-5.118 1.412a40.438 40.438 0 00-4.323 1.324c-1.06.44-2.03.882-3 1.588-.795.617-1.5 1.323-2.03 2.206h-.088c0-.088-.088-.177-.088-.177-.618-1.059-1.589-1.853-2.647-2.47-1.148-.706-2.295-1.147-3.53-1.589-1.588-.529-3.176-.882-4.764-1.323-1.677-.441-3.353-.882-4.942-1.5-1.5-.618-2.911-1.324-4.235-2.206-1.941-1.412-3.265-3.265-4.059-5.47C.441 44.116.088 42.97 0 41.823c0-.53-.088-.795-.088-1.677C0 26.117 0 0 0 0h50.47v40.588zM25.325 57.265c.088-.089.176-.089.176-.177a8.188 8.188 0 011.235-1.235c.97-.794 2.118-1.412 3.353-1.853 1.5-.618 3-1.059 4.588-1.412 1.589-.44 3.265-.794 4.853-1.323 1.5-.53 3-1.06 4.412-1.853 2.118-1.236 3.706-2.824 4.765-4.853a14.21 14.21 0 001.323-5.383c.089-1.058.089-2.117.089-3.176V.53H.529v36.44c0 .971.089 1.942.177 2.912.088 1.06.353 2.118.706 3.177.706 2.294 2.117 4.147 4.059 5.647 1.235.882 2.558 1.5 3.97 2.03 1.5.617 3 .97 4.588 1.411 1.5.441 3 .794 4.589 1.235 1.323.353 2.559.794 3.706 1.5 1.147.53 2.117 1.324 3 2.383z"/><path d="M43.941 32.912c-.794 5.206-3.441 8.823-3.441 8.823h1.059s-3.794 4.324-6.265 4.059c-.353 0 5.206-4.588 6.97-14.03.795-4.411-.176-9.176-.176-9.176 1.06.794 2.56 5.559 1.853 10.324zm-5.559-12.883s.442 3.088.265 6.883c-.265 6.97-2.118 11.03-5.206 14.647-.794.97-7.676 7.147-7.676 7.147 5.823.088 11.206-6.177 11.206-6.177h-1.412c0-.088 3.441-3.53 4.765-10.235 1.058-5.647-.971-10.765-.971-10.765l-.97-1.5zM31.5 42.53h-2.382s7.147-4.94 7.147-15.44c0-5.648-.883-9.883-.883-9.883l-1.853-3.088v2.117c0 2.118-.882 4.941-2.206 6.265-1.411 1.323-3.264 2.206-5.382 2.206 3.088 1.059 6.441-.53 8.118-3.265.441 3.618.706 7.765-.618 11.294-1.059 2.824-2.735 5.206-4.5 7.147V37.06L27 35.735s0 2.824-.088 2.736c0 0-.97-.53-1.324-.971-.97-.883-1.765-2.206-1.765-2.206s.089 3.177-.088 3.088c-2.03-1.235-2.382-3.353-2.382-3.353v2.206s-.794-.441-1.412-1.059c-.617-.617-1.059-1.676-1.059-1.676l-5.117.97-.618 2.03.97-.883 3.706-.705s.442.706 1.148 1.5S20.91 39 20.91 39v-.618c1.324 1.5 1.589 1.853 2.207 2.206 1.323.883 2.294 1.324 2.294 1.324s0-2.56.088-2.56c0 0 .706 1.148 1.941 1.854-2.559 2.382-4.941 3.794-5.47 4.147-.089.088-3.353 2.03-3.177 2.03 6 1.852 12.706-4.854 12.706-4.854zm12.176-3.44c.971-3.707 3.53-8.824.53-17.383 1.235 1.412 2.03 3.617 2.382 5.647 0-.618 0-1.236-.088-1.853-.794-7.765-5.118-13.588-9.618-16.5-2.823-1.853-5.117-2.382-5.647-1.412-.53.794.088 3.441.177 4.235.088 1.677.44 5.03-1.147 6.353-2.03 1.677-7.677-2.823-7.677-2.823s.794.264 1.677-1.324c.088-.088.088-.264.176-.353.53-1.764.618-3.44-.441-6.882.353-.176 1.059-.441 1.588-.618-3.265.089-6.176 0-6.265 0 0 1.589-1.764 1.412-1.764.618-1.677 0-2.647-.176-2.47 2.206 0 0 1.146-.177 1.5-.265 2.911-.176 3.352 2.47 3.176 4.324-.265 1.764-1.147 1.412-2.118 4.5-.882 3.882.706 5.912 2.647 8.912-1.676-.883-1.853-.971-3-2.206.618 2.911 2.47 6.264 2.912 7.058 3-.794 3.706-1.588 3.706-1.852V31.5c-.441.706-2.47 1.059-5.824 1.765-4.676.794-4.588.882-5.294.44-.53-.352-.706-.97-.882-1.234-.089 0-2.383.264-2.912.352-.265.089-.618.442-.53.971.089.618.442.794 1.148.794v.177s-.883.088-.794.97c.088.883 1.058.883 1.058.883v.088s-.794.264-.617 1.147c.176.882 1.058.706 1.323.706l2.118-.265.617 4.941-2.117.265-.441-4.235c-.177 0-.53.088-.794.088-.353 0-1.589 0-1.853-1.147-.177-.883.353-1.236.353-1.236-.089-.088-.795-.176-.883-.882-.176-.794.441-1.147.53-1.235 0 0-.618-.177-.706-.97-.177-.795.264-1.236.44-1.324.177-.177.354-.265.619-.353h.088l-3.97.44s1.5-3.793 5.823-4.058c4.5-.353 6.44 2.824 6.44 2.824l-3.793.353c.088.264.353.617.618.794.705.353 3.44-.353 4.5-.53h.088c-.442-.97-2.294-5.03-2.912-8.823-1.412.088-3.97.088-4.235-.265-.53-.882-.265-.97-.53-1.853-.264-.882-1.676-1.235-2.294-.441-.794.97-.53 2.294 1.235 2.559-.088 0 0 0 0-.353h.53c0 .617.088.97.441 1.235-1.412.177-2.382-.353-2.824-1.059-.352.088-.617 0-.97 0-.177.177-.353.442-.265.794.088.706.618.883.97.883.618 0 .971-.794.971-.794v1.411h7.147s-1.235 2.03-3.352 2.824c-.795.353-1.854.53-3 .53-2.03-.089-3.442-.795-4.236-1.589-.794-.794-1.412-1.676-1.412-1.676h3.177c-.353-.177-.794-.441-1.059-.97-.353-.795-.088-1.325.265-1.59-.177-.087-.353-.176-.441-.352a1.921 1.921 0 01-.442-.706c-.176-.53-.176-1.059 0-1.5.177-.53.795-1.147 1.5-1.235.706-.088 1.236.088 1.765.353v-4.5h2.118l.088 4.235c.441 0 .882.176 1.147.706s.265 1.323.265 1.323-.089.706.706.883h2.47a11.559 11.559 0 010-2.47 10.743 10.743 0 011.236-3.53c.176-.177.264-.442.44-.53l.883-1.059c.794-.97 1.147-1.676 1.059-2.911-.177-1.853-3.883-2.03-4.324-.883-.353-.53-.353-1.147-.353-1.764 0-.618.265-.97.353-1.324.089-1.323 1.5-1.412 2.56-1.5 0-2.647 7.235-1.588 9.793.265-.264.088-1.323.706-1.323.706.706 1.411 1.323 6.53 1.412 9.44 2.294 1.148 2.117-1.94 1.676-5.91-.177-1.942.353-3.177 1.147-4.06.794-.882 1.941-.882 2.824-.794 3.794.265 14.735 6.441 15.176 19.677.265 5.559-2.382 12.882-3.97 13.676zM7.5 19.764c-.353-.265-2.03-.177-2.03.97 0 .706.265.97.618 1.147.177.088.441.177.618.177a2.845 2.845 0 01.794-2.294z"/></g><defs><clipPath id="eclip0_201_297"><path fill="#fff" d="M0 0h190.235v60H0z"/></clipPath></defs></svg></svg>