<svg width="331" height="327" xmlns="http://www.w3.org/2000/svg"><path opacity=".25" d="M303.069 210.169c-5.955 38.507-25.807 65.265-25.807 65.265h7.941s-28.454 31.98-46.983 30.022c-2.646 0 39.042-33.938 52.277-103.771 5.955-32.632-1.324-67.875-1.324-67.875 7.941 5.874 19.19 41.116 13.896 76.359zm-41.688-95.286s3.308 22.843 1.985 50.906c-1.985 51.56-15.881 81.581-39.042 108.34-5.955 7.179-57.57 52.864-57.57 52.864 43.674.653 84.039-45.685 84.039-45.685h-10.587c0-.653 25.807-26.106 35.733-75.707 7.94-41.77-7.279-79.623-7.279-79.623l-7.279-11.095zm-51.615 166.425H191.9s53.599-36.548 53.599-114.213c0-41.77-6.617-73.097-6.617-73.097l-13.896-22.842v15.663c0 15.664-6.617 36.548-16.543 46.338-10.588 9.79-24.484 16.316-40.365 16.316 23.16 7.832 48.306-3.916 60.878-24.148 3.309 26.759 5.294 57.433-4.632 83.539-7.94 20.885-20.513 38.506-33.748 52.865v-20.885l-14.558-9.79s0 20.885-.661 20.232c0 0-7.279-3.916-9.926-7.179-7.279-6.526-13.235-16.316-13.235-16.316s.662 23.495-.661 22.843c-15.22-9.138-17.867-24.801-17.867-24.801v16.316s-5.955-3.263-10.587-7.832c-4.633-4.568-7.941-12.4-7.941-12.4l-38.38 7.179-4.632 15.011 7.279-6.526 27.792-5.222s3.309 5.222 8.603 11.095c5.293 5.874 14.558 11.748 14.558 11.748v-4.568c9.925 11.095 11.911 13.705 16.543 16.316 9.925 6.526 17.204 9.789 17.204 9.789s0-18.926.662-18.926c0 0 5.294 8.484 14.558 13.705-19.19 17.622-37.056 28.064-41.027 30.675-.662.652-25.145 15.01-23.822 15.01 44.997 13.706 95.288-35.895 95.288-35.895zm91.318-25.453c7.279-27.411 26.469-65.265 3.97-128.572 9.265 10.443 15.22 26.759 17.867 41.77 0-4.569 0-9.137-.662-13.706-5.955-57.433-38.38-100.508-72.128-122.045-21.175-13.705-38.38-17.621-42.35-10.442-3.97 5.874.662 25.453 1.324 31.327.661 12.4 3.308 37.2-8.603 46.99-15.219 12.401-57.57-20.884-57.57-20.884s5.956 1.958 12.573-9.79c.662-.653.662-1.958 1.323-2.61 3.971-13.053 4.633-25.454-3.308-50.907 2.647-1.305 7.941-3.263 11.911-4.569-24.484.653-46.321 0-46.983 0 0 11.748-13.234 10.443-13.234 4.569-12.573 0-19.852-1.305-18.528 16.316 0 0 8.602-1.305 11.25-1.958 21.836-1.305 25.145 18.274 23.821 31.98-1.985 13.053-8.602 10.442-15.881 33.285-6.618 28.716 5.294 43.727 19.851 65.917-12.572-6.526-13.896-7.179-22.498-16.316 4.632 21.537 18.528 46.338 21.837 52.212 22.498-5.874 27.792-11.748 27.792-13.706v15.011c-3.309 5.221-18.528 7.832-43.674 13.053-35.071 5.874-34.41 6.526-39.703 3.263-3.97-2.61-5.294-7.179-6.617-9.137-.662 0-17.867 1.958-21.837 2.611-1.985.652-4.632 3.263-3.97 7.179.661 4.568 3.308 5.874 8.602 5.874v1.305s-6.617.653-5.956 7.179c.662 6.527 7.941 6.527 7.941 6.527v.652s-5.955 1.958-4.632 8.485c1.324 6.526 7.94 5.221 9.926 5.221l15.881-1.958 4.632 36.548-15.881 1.958-3.309-31.327c-1.323 0-3.97.653-5.955.653-2.647 0-11.911 0-13.896-8.485-1.324-6.526 2.647-9.137 2.647-9.137-.662-.652-5.956-1.305-6.618-6.526-1.323-5.874 3.309-8.485 3.97-9.137 0 0-4.631-1.306-5.293-7.179-1.324-5.874 1.985-9.138 3.308-9.79 1.324-1.305 2.647-1.958 4.633-2.611h.661l-29.777 3.263s11.249-28.063 43.673-30.021c33.748-2.611 48.306 20.884 48.306 20.884l-28.454 2.611c.662 1.958 2.647 4.569 4.632 5.874 5.294 2.61 25.807-2.611 33.748-3.916h.662c-3.309-7.179-17.205-37.201-21.837-65.265-10.588.653-29.778.653-31.763-1.958-3.97-6.526-1.985-7.179-3.97-13.705-1.985-6.527-12.573-9.137-17.205-3.263-5.955 7.179-3.97 16.968 9.264 18.926-.661 0 0 0 0-2.61h3.97c0 4.568.662 7.179 3.31 9.137-10.588 1.305-17.867-2.611-21.176-7.832-2.647.653-4.632 0-7.279 0-1.323 1.305-2.647 3.263-1.985 5.874.662 5.221 4.632 6.526 7.279 6.526 4.632 0 7.279-5.874 7.279-5.874v10.443h53.6s-9.265 15.011-25.146 20.884c-5.956 2.611-13.896 3.916-22.499 3.916-15.22-.652-25.807-5.873-31.762-11.747C4.632 161.221 0 154.694 0 154.694h23.822c-2.647-1.305-5.956-3.263-7.94-7.179-2.647-5.873-.662-9.789 1.984-11.747-1.323-.653-2.646-1.306-3.308-2.611-1.323-1.305-2.647-3.263-3.309-5.221-1.323-3.916-1.323-7.832 0-11.095 1.324-3.916 5.956-8.484 11.25-9.137 5.293-.653 9.264.653 13.234 2.61V77.03h15.881l.662 31.327c3.309 0 6.617 1.305 8.603 5.221 1.985 3.916 1.985 9.789 1.985 9.789s-.662 5.222 5.294 6.527h18.528c-.662-6.527-.662-12.4 0-18.274 1.985-11.748 5.955-20.232 9.264-26.106 1.323-1.305 1.985-3.263 3.308-3.916l6.618-7.832c5.955-7.179 8.602-12.4 7.94-21.537-1.323-13.706-29.115-15.01-32.424-6.526-2.647-3.916-2.647-8.485-2.647-13.053 0-4.569 1.985-7.18 2.647-9.79.662-9.79 11.25-10.442 19.19-11.095 0-19.58 54.261-11.748 73.451 1.958-1.985.652-9.926 5.22-9.926 5.22 5.294 10.443 9.926 48.297 10.588 69.834 17.205 8.485 15.881-14.358 12.573-43.727-1.324-14.358 2.647-23.495 8.602-30.022 5.956-6.526 14.558-6.526 21.175-5.874 28.454 1.958 110.508 47.643 113.817 145.54 1.985 41.117-17.867 95.287-29.778 101.161zM29.778 112.925c-2.647-1.958-15.22-1.305-15.22 7.179 0 5.221 1.985 7.179 4.632 8.485 1.323.652 3.309 1.305 4.632 1.305-.662-5.874 1.323-12.4 5.956-16.969z"/></svg>34 177.537 50.9527 178.842 42.3503 178.842C27.1307 178.19 16.5431 172.969 10.5876 167.095C4.63206 161.221 0 154.694 0 154.694H23.822C21.1751 153.389 17.8665 151.431 15.8814 147.515C13.2345 141.642 15.2196 137.726 17.8665 135.768C16.5431 135.115 15.2196 134.462 14.5579 133.157C13.2345 131.852 11.911 129.894 11.2493 127.936C9.92585 124.02 9.92585 120.104 11.2493 116.841C12.5727 112.925 17.2048 108.357 22.4986 107.704C27.7924 107.051 31.7627 108.357 35.7331 110.314V77.0295H51.6144L52.2761 108.357C55.5848 108.357 58.8934 109.662 60.8786 113.578C62.8637 117.494 62.8637 123.367 62.8637 123.367C62.8637 123.367 62.202 128.589 68.1575 129.894H86.6858C86.024 123.367 86.024 117.494 86.6858 111.62C88.6709 99.8721 92.6413 91.3877 95.9499 85.5139C97.2733 84.2086 97.9351 82.2507 99.2585 81.598L105.876 73.7663C111.831 66.5871 114.478 61.366 113.816 52.2289C112.493 38.5233 84.7006 37.2181 81.392 45.7025C78.7451 41.7866 78.7451 37.2181 78.7451 32.6495C78.7451 28.081 80.7303 25.4704 81.392 22.8598C82.0537 13.0701 92.6413 12.4175 100.582 11.7648C100.582 -7.81457 154.843 0.01719 174.033 13.7228C172.048 14.3754 164.107 18.9439 164.107 18.9439C169.401 29.3863 174.033 67.2398 174.695 88.7771C191.9 97.2616 190.576 74.4189 187.268 45.0498C185.944 30.6916 189.915 21.5545 195.87 15.0281C201.826 8.5016 210.428 8.5016 217.045 9.15424C245.499 11.1122 327.553 56.7974 330.862 154.694C332.847 195.811 312.995 249.981 301.084 255.855ZM29.7776 112.925C27.1307 110.967 14.5579 111.62 14.5579 120.104C14.5579 125.325 16.5431 127.283 19.19 128.589C20.5134 129.241 22.4986 129.894 23.822 129.894C23.1603 124.02 25.1455 117.494 29.7776 112.925Z" />
</svg>
