<svg width="26" height="16" xmlns="http://www.w3.org/2000/svg"><path d="M4.939 10.76c1.002 1.359 2.155 2.56 3.644 3.41 1.685.964 3.5 1.255 5.415 1.166.894-.043 1.163-.276 1.204-1.167.028-.61.099-1.22.4-1.768.295-.538.743-.64 1.26-.305a3.6 3.6 0 01.68.607c.503.55.99 1.12 1.513 1.652.656.668 1.434 1.061 2.41.981l3.784.002c.61-.041.926-.788.576-1.47-.246-.475-.569-.899-.91-1.31-.773-.928-1.685-1.72-2.546-2.56-.776-.758-.826-1.198-.202-2.073.683-.955 1.414-1.873 2.102-2.823.642-.888 1.3-1.775 1.637-2.837.215-.677.024-.976-.668-1.096-.12-.02-.244-.02-.366-.02l-4.117-.005c-.507-.008-.786.214-.965.663a24.774 24.774 0 01-.782 1.8c-.653 1.33-1.383 2.614-2.407 3.701-.227.24-.478.543-.855.418-.471-.172-.611-.95-.603-1.212l-.004-4.752c-.091-.678-.242-.982-.917-1.114H9.946c-.57 0-.856.222-1.162.578-.174.208-.228.34.133.41.709.134 1.111.593 1.216 1.304.17 1.138.158 2.28.06 3.42a3.174 3.174 0 01-.217.978c-.207.49-.542.589-.98.287-.395-.273-.674-.657-.949-1.042-1.026-1.45-1.843-3.012-2.511-4.654-.192-.474-.525-.762-1.028-.77a104.18 104.18 0 00-3.706.002c-.742.013-.964.374-.66 1.049 1.344 2.992 2.842 5.9 4.797 8.55z"/></svg>6.51376L15.1395 1.76159C15.048 1.08407 14.8966 0.780149 14.2224 0.648438H9.94625C9.37693 0.648438 9.08959 0.870458 8.78419 1.22642C8.61017 1.43359 8.55574 1.56629 8.91722 1.63524C9.62601 1.76959 10.0284 2.2293 10.1334 2.94031C10.3025 4.07788 10.2909 5.21998 10.1927 6.36077C10.1646 6.69396 10.1073 7.02576 9.97553 7.33759C9.76902 7.82823 9.43401 7.92679 8.99582 7.62493C8.60052 7.35235 8.32151 6.96844 8.04704 6.5827C7.02131 5.13297 6.20399 3.57075 5.53578 1.9291C5.34378 1.45454 5.01067 1.16745 4.5084 1.15912C3.27384 1.13941 2.03805 1.13652 0.801923 1.16077C0.0599851 1.17396 -0.161706 1.53503 0.142129 2.20967C1.48646 5.20192 2.98361 8.11046 4.9385 10.7599Z" />
</svg>
