<svg width="24" height="24" xmlns="http://www.w3.org/2000/svg"><path d="M12.12 13.53h-.17c-2.27-.07-3.97-1.84-3.97-4.02 0-2.22 1.81-4.03 4.03-4.03s4.03 1.81 4.03 4.03a4.014 4.014 0 01-3.89 4.02h-.03zM12 6.97c-1.4 0-2.53 1.14-2.53 2.53a2.52 2.52 0 002.43 2.53.84.84 0 01.23 0 2.535 2.535 0 002.4-2.53c0-1.39-1.13-2.53-2.53-2.53zm0 15.78c-2.69 0-5.26-1-7.25-2.82a.755.755 0 01-.24-.63c.13-1.19.87-2.3 2.1-3.12 2.98-1.98 7.81-1.98 10.78 0 1.23.83 1.97 1.93 2.1 3.12.03.24-.06.47-.24.63A10.71 10.71 0 0112 22.75zM6.08 19.1A9.208 9.208 0 0012 21.25c2.17 0 4.26-.76 5.92-2.15-.18-.61-.66-1.2-1.37-1.68-2.46-1.64-6.63-1.64-9.11 0-.71.48-1.18 1.07-1.36 1.68z"/><path d="M12 22.75C6.07 22.75 1.25 17.93 1.25 12S6.07 1.25 12 1.25 22.75 6.07 22.75 12 17.93 22.75 12 22.75zm0-20C6.9 2.75 2.75 6.9 2.75 12S6.9 21.25 12 21.25s9.25-4.15 9.25-9.25S17.1 2.75 12 2.75z"/></svg>43 19.7701 19.25 19.9301C17.26 21.7501 14.69 22.7501 12 22.7501ZM6.07999 19.1001C7.73999 20.4901 9.82999 21.2501 12 21.2501C14.17 21.2501 16.26 20.4901 17.92 19.1001C17.74 18.4901 17.26 17.9001 16.55 17.4201C14.09 15.7801 9.91999 15.7801 7.43999 17.4201C6.72999 17.9001 6.25999 18.4901 6.07999 19.1001Z"/>
<path d="M12 22.75C6.07 22.75 1.25 17.93 1.25 12C1.25 6.07 6.07 1.25 12 1.25C17.93 1.25 22.75 6.07 22.75 12C22.75 17.93 17.93 22.75 12 22.75ZM12 2.75C6.9 2.75 2.75 6.9 2.75 12C2.75 17.1 6.9 21.25 12 21.25C17.1 21.25 21.25 17.1 21.25 12C21.25 6.9 17.1 2.75 12 2.75Z"/>
</svg>
